# xmcd
#
# Track frame offsets: 
#        150
#        21234
#        31683
#        50472
#        60727
#        68965
#        75612
#        86216
#        94926
#        104725
#        119761
#        130908
#        142401
#        151857
#        166753
#        175663
#        193991
#        200863
#        219401
#        227284
#        236774
#        243911
#        261663
#        274287
#        284881
#        296150
#        305852
#        314496
#        321003
#        328566
#
# Disc length: 4465 seconds
#
# Revision: 0
# Processed by: cddbd v1.5.2PL0 Copyright (c) Steve Scherf et al.
# Submitted via: ExactAudioCopy v1.0b1
#
DISCID=df116f1e
DTITLE=Violeta Parra - Gracias a la Vida 
DYEAR=2010
DGENRE=Country
TTITLE0=Gracias a la vida
TTITLE1=Violeta Ausente
TTITLE2=Volver a los 17
TTITLE3=El primer dial el senor
TTITLE4=La cueca de los poetas
TTITLE5=Cuecas punteadas
TTITLE6=mazurquica modernica
TTITLE7=En el portal de Belen
TTITLE8=El Albertio
TTITLE9=Entre aquel apostolado
TTITLE10=Cantores que reflexionan
TTITLE11=Hay une ciudad muy lejon
TTITLE12=Tres polkas
TTITLE13=Pupila de aguila
TTITLE14=Viva dios! viva le virgen !
TTITLE15=Run run se pue pa'l norte
TTITLE16=Ojos negros matadores
TTITLE17=Maldigo del alto cielo
TTITLE18=Viva la luz de don creador
TTITLE19=Rindel angelito
TTITLE20=Dicen que el aji maduro
TTITLE21=Una copla me han cantado
TTITLE22=Los paires saben sentir
TTITLE23=Donde estas, prenda querida ?
TTITLE24=El Guillatun
TTITLE25=Arriba de aquel arbol
TTITLE26=Pastelero a tus pasteles
TTITLE27=Miren como corre el agua
TTITLE28=de cuerpo entero
TTITLE29=Aqui se acaba est cueca
EXTD=
EXTT0=
EXTT1=
EXTT2=
EXTT3=
EXTT4=
EXTT5=
EXTT6=
EXTT7=
EXTT8=
EXTT9=
EXTT10=
EXTT11=
EXTT12=
EXTT13=
EXTT14=
EXTT15=
EXTT16=
EXTT17=
EXTT18=
EXTT19=
EXTT20=
EXTT21=
EXTT22=
EXTT23=
EXTT24=
EXTT25=
EXTT26=
EXTT27=
EXTT28=
EXTT29=
PLAYORDER=
